<?xml version="1.0"?>
<svg xmlns="http://www.w3.org/2000/svg" xmlns:xlink="http://www.w3.org/1999/xlink" viewBox="0 0 487.39 1525.78" width="487.39" height="1525.78"><defs><style>.cls-1{fill:none;}.cls-2{clip-path:url(#clip-path);}.cls-3,.cls-4{stroke:#fff;stroke-miterlimit:10;stroke-width:8px;}.cls-4{opacity:0.4;}</style><clipPath id="clip-path" transform="translate(-49.58 352.17)"><path class="cls-1" d="M379.74,205.9c-18.08,16.92-23.7,43.93-20.63,68.5s13.63,47.48,23.78,70.06c59.17,131.62,109,267.22,158.69,402.69,21.51,58.61,43.28,118.49,45.15,180.9,1.61,53.94-11.76,107.06-25,159.36-6.62,26.1-13.58,52.94-29.61,74.58-36.57,49.36-106.41,56.42-167.77,59.2-32.82,1.49-66.43,2.87-97.77-7s-60.48-33.34-67.6-65.41c-8.8-39.58,16.77-77.43,33.35-114.44,40.9-91.26,28.89-196.91,8.63-294.83-13.75-66.48-31.3-133.16-65-192.08C126.67,461.38,44.35,394.21,12.51,300.28-14.15,221.64,3.22,131.62,51.23,64.82,71,37.3,109.06-12.37,144.89,2.83,188.66,21.4,230.47,53.66,266.65,84A663.76,663.76,0,0,1,379.74,205.9Z"></path></clipPath></defs><g id="Capa_2" data-name="Capa 2"><g id="_ÎÓÈ_1" data-name="—ÎÓÈ_1"><g class="cls-2"><path class="cls-3" d="M369.27-343.51S134.55.62,53.89,299.06c0,0,155.94,252.74,242,371S398,893.63,390.71,923.21s-27.43,118.51-27.43,198.56c0,10-76.92,22.57-86.94,25.92s-25.08,20.89,40.13,21.73,129.57-.84,134.58-10.88-23.45-95.24,28.38-153.76,88.61-111.16,0-139.59c0,0-49.28-149.67-64.32-259.17s-85.26-248.28-172.2-298.43c0,0,251.62-302.6,252.46-305.12S369.27-343.51,369.27-343.51Z" transform="translate(-49.58 352.17)"></path><path class="cls-3" d="M439,1005c27.51-49.53,28.43-121.22,24.86-190.31,9.05,30.6,15.61,50.54,15.61,50.54,88.61,28.43,51.83,81.08,0,139.59s-23.36,143.74-28.38,153.76c-3.88,7.79-43.5,10.54-91.5,11,3.19-19.14,8.1-37.69,15.6-55.2C390.35,1071.8,417.68,1044.45,439,1005Z" transform="translate(-49.58 352.17)"></path><path class="cls-3" d="M299.55-233.53c40.9-67.71,69.72-110,69.72-110S496.2,0,495.37,2.47C494.93,3.78,427.73,85,362.79,163.26c-17-67.82-30.4-136.32-42.32-203.36A1276.83,1276.83,0,0,1,299.55-233.53Z" transform="translate(-49.58 352.17)"></path><path class="cls-3" d="M479.43,865.19S430.15,715.52,415.11,606s-85.26-248.28-172.2-298.43c0,0,216.36-260.21,248.46-300-39.61,31.14-79.51,62-118.1,94.15C320.63,147.36,236.4,200,201.3,263.17c-31.58,59.66,10.53,105.29,45.62,150.91,73.71,98.27,136.88,200,172,319.36,33.46,102.77,40.86,207.16,36.65,313.18a119.25,119.25,0,0,1,23.89-41.84C531.26,946.27,568,893.62,479.43,865.19Z" transform="translate(-49.58 352.17)"></path><path class="cls-4" d="M479.43,865.19S430.15,715.52,415.11,606s-85.26-248.28-172.2-298.43l42-50.55c13.11-15.78,28.43-34.22,44.75-53.88C293.82,163.21,247.81,127.51,208.32,100a266.87,266.87,0,0,0-67.19-35.91C127,95.22,113.4,127,100.87,158.91c-18.38,46.85-34.52,94.05-47,140.15,0,0,155.94,252.74,242,371S398,893.63,390.71,923.21s-27.43,118.51-27.43,198.56c0,10-76.92,22.57-86.94,25.92s-25.08,20.89,40.13,21.73,129.57-.84,134.58-10.88-23.45-95.24,28.38-153.76S568,893.62,479.43,865.19Z" transform="translate(-49.58 352.17)"></path><path class="cls-4" d="M284.92,257c13.11-15.78,28.43-34.22,44.75-53.88C293.82,163.21,247.81,127.51,208.32,100a266.87,266.87,0,0,0-67.19-35.91C127,95.22,113.4,127,100.87,158.91c30.24,11.17,60,24,88.15,39.35C219.88,215.49,253.53,235.1,284.92,257Z" transform="translate(-49.58 352.17)"></path><path class="cls-4" d="M276.34,1147.69c-10,3.34-25.08,20.89,40.13,21.73,39.59.5,78.86.08,104.73-2.57a317.77,317.77,0,0,1-61.71-41C343.93,1135,285,1144.79,276.34,1147.69Z" transform="translate(-49.58 352.17)"></path></g></g></g></svg>