<?xml version="1.0"?>
<svg viewBox="0 0 512 512" xmlns="http://www.w3.org/2000/svg" width="512" height="512"><title></title><g id="Hot_drink"><path d="M373.6582,177.5721H366.127V148.15a7.9979,7.9979,0,0,0-8-8H153.8691a7.9979,7.9979,0,0,0-8,8v29.4219h-7.5273a7.9979,7.9979,0,0,0-8,8v40a7.9979,7.9979,0,0,0,8,8h7.9936l15.7564,262.9062a7.9985,7.9985,0,0,0,7.9844,7.5235H341.9238a7.9958,7.9958,0,0,0,7.9844-7.5235l15.7524-262.9062h7.9976a7.9979,7.9979,0,0,0,8-8v-40A7.9979,7.9979,0,0,0,373.6582,177.5721Zm-8,40H146.3418v-24H365.6582ZM161.8691,156.15H350.127v21.4219H161.8691ZM337.626,433.9783H174.373l-8.7739-146.3906H346.3979ZM177.6113,488.0018l-2.2788-38.0235H336.667l-2.2783,38.0235ZM347.3569,271.5877H164.64l-2.2788-38.0156H349.6348Z"></path><path d="M180.3262,83.3612c0,13.7578,5.1718,21.125,9.332,27.0468a7.9978,7.9978,0,1,0,13.0938-9.1875c-3.7305-5.32-6.4258-9.1562-6.4258-17.8593s2.6953-12.5391,6.43-17.8594c4.1562-5.9219,9.3281-13.2969,9.3281-27.0469,0-13.7656-5.1758-21.1328-9.332-27.0547a8.0023,8.0023,0,0,0-13.0938,9.2031c3.7305,5.3047,6.4258,9.1407,6.4258,17.8516,0,8.6953-2.6953,12.5391-6.4258,17.8594C185.498,62.2362,180.3262,69.6033,180.3262,83.3612Z"></path><path d="M240.2051,83.3612c0,13.7656,5.1758,21.1328,9.332,27.0546a8.0023,8.0023,0,0,0,13.0938-9.2031c-3.7305-5.3047-6.4258-9.1406-6.4258-17.8515S258.9,70.8143,262.65,65.4783c4.1484-5.9218,9.3125-13.289,9.3125-27.0234,0-13.7578-5.1719-21.125-9.332-27.0469a7.9978,7.9978,0,1,0-13.0938,9.1875c3.73,5.32,6.4258,9.1563,6.4258,17.8594,0,8.6875-2.6914,12.5313-6.4258,17.8516C245.3809,62.2283,240.2051,69.5955,240.2051,83.3612Z"></path><path d="M300.08,83.3612c0,13.7578,5.1719,21.125,9.332,27.0468a7.9978,7.9978,0,1,0,13.0938-9.1875c-3.7305-5.32-6.4258-9.1562-6.4258-17.8593s2.6953-12.5391,6.43-17.8594c4.1562-5.9219,9.3281-13.2969,9.3281-27.0469,0-13.7656-5.1758-21.1328-9.332-27.0547a8.0023,8.0023,0,0,0-13.0938,9.2031c3.7305,5.3047,6.4258,9.1407,6.4258,17.8516,0,8.6953-2.6953,12.5391-6.4258,17.8594C305.252,62.2362,300.08,69.6033,300.08,83.3612Z"></path></g></svg>